<svg width="351" height="315" viewBox="0 0 351 315" fill="none" xmlns="http://www.w3.org/2000/svg">
<rect x="263" width="87.5" height="315" fill="#472D2D"/>
<rect x="175.5" width="87.5" height="315" fill="#F9D745"/>
<rect x="0.5" width="87.5" height="315" fill="#6392EF"/>
<rect x="88" width="87.5" height="315" fill="#472D2D"/>
<path d="M0.5 0H175.5L88 315L0.5 0Z" fill="#D5BFF7"/>
<path d="M332 200.144C332 246.951 293.724 284.903 246.5 284.903C199.276 284.903 161 246.951 161 200.144C161 153.337 199.276 115.385 246.5 115.385C293.724 115.385 332 153.337 332 200.144Z" fill="white" stroke="#E86A50"/>
<path d="M286.819 190.439L286.818 190.454V190.469C286.818 201.762 282.938 211.962 275.895 219.335C268.855 226.704 258.625 231.28 245.865 231.28C220.342 231.28 202.73 213.795 202.73 191.282V191.261L202.728 191.24L199.744 155.547H244.35H288.968L286.819 190.439Z" fill="white" stroke="#E86A50"/>
<path d="M289 152.915C289 177.356 269.014 197.176 244.35 197.176C219.686 197.176 199.7 177.356 199.7 152.915C199.7 128.475 219.686 108.654 244.35 108.654C269.014 108.654 289 128.475 289 152.915Z" fill="#472D2D" stroke="#E86A50"/>
<path d="M273.761 124.803C280.283 131.758 284.151 141.379 284.646 152.577C277.438 137.867 260.845 130.567 244.35 130.567C227.855 130.567 211.262 137.867 204.054 152.577C204.549 141.379 208.417 131.758 214.939 124.803C221.932 117.346 232.008 112.917 244.35 112.917C256.692 112.917 266.768 117.346 273.761 124.803Z" fill="#E86A50" stroke="#E86A50"/>
<path d="M232.167 30V157.889M253.667 30V146.625" stroke="#E86A50"/>
</svg>
