<svg width="350" height="630" viewBox="0 0 350 630" fill="none" xmlns="http://www.w3.org/2000/svg">
<rect width="87.5" height="315" fill="#472D2D"/>
<rect x="87.5" width="87.5" height="315" fill="#F9D745"/>
<rect x="262.5" y="315" width="87.5" height="315" fill="#472D2D"/>
<rect x="175" y="315" width="87.5" height="315" fill="#E86A50"/>
<rect y="315" width="87.5" height="315" fill="#6392EF"/>
<rect x="87.5" y="315" width="87.5" height="315" fill="#472D2D"/>
<rect x="175" width="87.5" height="315" fill="#D5BFF7"/>
<rect x="262.5" width="87.5" height="315" fill="#E86A50"/>
<path d="M0 315H175L87.5 630L0 315Z" fill="#D5BFF7"/>
<circle cx="131.25" cy="201.25" r="43.75" fill="white"/>
<ellipse cx="262.246" cy="87.755" rx="87.7536" ry="87.755" fill="#6392EF"/>
<path fill-rule="evenodd" clip-rule="evenodd" d="M262.5 175.51C310.825 175.51 350 136.221 350 87.755C350 39.2892 310.825 0 262.5 0V175.51Z" fill="white"/>
<path d="M331.5 413.087C331.5 459.894 293.224 497.846 246 497.846C198.776 497.846 160.5 459.894 160.5 413.087C160.5 366.28 198.776 328.328 246 328.328C293.224 328.328 331.5 366.28 331.5 413.087Z" fill="white" stroke="#E86A50"/>
<path d="M286.319 403.382L286.318 403.398V403.413C286.318 414.706 282.438 424.905 275.395 432.279C268.355 439.648 258.125 444.223 245.365 444.223C219.842 444.223 202.23 426.739 202.23 404.225V404.204L202.228 404.184L199.244 368.49H243.85H288.468L286.319 403.382Z" fill="white" stroke="#E86A50"/>
<path d="M288.5 365.859C288.5 390.299 268.514 410.12 243.85 410.12C219.186 410.12 199.2 390.299 199.2 365.859C199.2 341.418 219.186 321.598 243.85 321.598C268.514 321.598 288.5 341.418 288.5 365.859Z" fill="#472D2D" stroke="#E86A50"/>
<path d="M273.261 337.747C279.783 344.702 283.651 354.323 284.146 365.521C276.938 350.81 260.345 343.511 243.85 343.511C227.355 343.511 210.762 350.81 203.554 365.521C204.049 354.323 207.917 344.702 214.439 337.747C221.432 330.289 231.508 325.861 243.85 325.861C256.192 325.861 266.268 330.289 273.261 337.747Z" fill="#E86A50" stroke="#E86A50"/>
<path d="M231.667 242.944V370.832M253.167 242.944V359.568" stroke="#E86A50"/>
</svg>
