<svg width="1440" height="500" viewBox="0 0 1440 500" fill="none" xmlns="http://www.w3.org/2000/svg">
<g clip-path="url(#clip0_234_1315)">
<path d="M1440 0H0V500H1440V0Z" fill="#E86A50"/>
<path d="M156.58 357.218C152.285 317.955 153.836 297.069 164.57 265.21L306.489 317.293C316.948 335.003 322.014 345.152 327.934 357.218H156.58Z" fill="#472D2D"/>
<path d="M281.26 228.371C296.594 269.021 336.626 355.72 313.849 339.523C294.606 325.84 144.456 296.594 132.332 237.263C125.324 202.965 146.283 170.254 187.698 170.254C229.114 170.254 267.243 191.214 281.26 228.371Z" fill="#D5BFF7"/>
<path d="M324.361 138.179C321.306 134.842 319.573 133.039 317.002 128.016L222.74 179.464C215.096 195.924 209.147 203.462 195.758 214.08L299.481 309.989C296.147 296.832 278.444 273.513 252.175 237.263C252.175 237.263 246.568 229.324 252.175 214.08C257.782 198.836 262.584 191.863 271.448 179.464C304.523 181.364 313.276 180.815 317.002 177.876C319.208 174.987 319.673 173.119 317.002 168.666C314.887 161.057 316.107 157.264 317.002 150.247C315.798 147.664 315.957 146.545 317.002 144.848L324.361 138.179Z" fill="white"/>
<path d="M308.243 155.328C309.198 153 313.967 149.987 315.251 150.247C316.342 149.915 319.538 151.367 317.704 154.375C316.693 155.298 314.42 155.454 311.697 155.421C314.565 155.567 316.679 155.902 317.704 156.598C319.106 157.551 318.405 160.727 315.251 160.727C312.097 160.727 310.519 158.717 308.243 155.328Z" fill="#FF6B3B"/>
<path d="M308.942 98.1644L324.711 102.293C320.714 109.779 321.71 124.644 314.199 134.368C274.952 185.181 248.688 206.122 201.364 185.181V156.599L184.194 115.631C177.886 66.7242 248.67 51.4803 269.345 66.7242L308.942 98.1644Z" fill="#472D2D"/>
<path fill-rule="evenodd" clip-rule="evenodd" d="M359.221 211.804C359.962 210.471 358.998 208.832 357.473 208.832H319.759C318.161 208.832 317.208 210.613 318.095 211.942L332.246 233.152C332.617 233.708 333.242 234.042 333.91 234.042H345.68C346.407 234.042 347.076 233.648 347.428 233.013L351.647 225.426L360.193 223.558C362.103 223.14 363.594 221.649 364.011 219.74L364.104 219.31C364.785 216.193 362.411 213.244 359.219 213.244H358.421L359.221 211.804ZM362.076 219.312C361.763 220.339 360.952 221.137 359.92 221.435L352.712 223.511L357.325 215.214H359.042C361.173 215.214 362.698 217.273 362.076 219.312Z" fill="white"/>
<path d="M358.421 213.244L359.221 211.804C359.962 210.471 358.998 208.832 357.473 208.832H319.759C318.161 208.832 317.208 210.613 318.095 211.942L332.246 233.152C332.617 233.708 333.242 234.042 333.91 234.042H345.68C346.407 234.042 347.076 233.648 347.428 233.013L351.647 225.426M358.421 213.244H359.219C362.411 213.244 364.785 216.193 364.104 219.31L364.011 219.74C363.594 221.649 362.103 223.14 360.193 223.558L351.647 225.426M358.421 213.244L357.325 215.214M351.647 225.426L352.712 223.511M352.712 223.511L359.92 221.435C360.952 221.137 361.763 220.339 362.076 219.312C362.698 217.273 361.173 215.214 359.042 215.214H357.325M352.712 223.511L357.325 215.214M340.549 174.049C336.306 178.72 335.16 182.479 340.549 187.133C345.938 191.786 345.281 195.023 340.549 204.045C345.281 195.023 341.383 192.105 335.994 187.452C330.605 182.798 336.306 178.72 340.549 174.049Z" stroke="white"/>
<path d="M336.275 294.428V329.044L365.36 343.97C359.581 319.018 352.965 308.42 336.275 294.428Z" fill="white"/>
<path d="M336.275 357.217V328.726C354.038 332.527 362.188 336.518 371.317 349.198V357.217H336.275Z" fill="#472D2D"/>
<path d="M330.669 271.562L333.122 319.516H348.54L348.19 306.496L356.249 319.516L360.454 317.929C354.656 308.686 351.445 303.472 348.19 292.205C347.324 284.323 347.928 277.902 352.745 271.562L390.941 243.933C396.197 239.169 396.815 233.748 399 225.831C398.456 224.179 397.195 223.6 394.445 225.831C393.12 234.488 390.679 240.183 382.881 239.169C392.183 231.697 391.316 226.428 390.24 211.222C389.59 208.624 387.787 208.046 385.684 211.222C385.004 209.323 383.232 208.046 381.129 212.81C384.984 221.702 385.38 227.075 379.727 231.865C380.039 221.987 374.327 219.514 367.463 213.128C365.358 210.417 363.153 213.01 365.01 216.303C370.943 221.782 373.147 223.118 371.668 231.865C367.81 237.629 365.108 237.904 357.651 242.662C354.158 243.024 352.001 243.538 353.096 240.439L365.711 220.75C365.842 216.153 364.531 215.825 360.454 217.891L342.233 240.757C336.695 246.168 330.501 252.768 330.669 271.562Z" fill="#472D2D"/>
<path d="M264.007 103.177C264.145 103.416 264.45 103.499 264.69 103.361C264.929 103.224 265.011 102.918 264.874 102.679L264.007 103.177ZM235.005 86.7313L234.967 87.2298L235.005 86.7313ZM197.559 63.564C197.392 63.3438 197.079 63.3003 196.858 63.4669C196.638 63.6335 196.595 63.9471 196.761 64.1673L197.559 63.564ZM235.706 82.6028L235.668 83.1013L235.706 82.6028ZM204.217 48.9554C204.05 48.7351 203.737 48.6917 203.516 48.8583C203.296 49.0249 203.253 49.3385 203.419 49.5587L204.217 48.9554ZM238.86 73.7106L238.822 74.2091L238.86 73.7106ZM211.225 40.6983C211.059 40.4781 210.745 40.4346 210.525 40.6013C210.305 40.7679 210.261 41.0814 210.428 41.3017L211.225 40.6983ZM264.874 102.679C261.439 96.7047 257.785 92.8622 253.053 90.38C248.337 87.9058 242.596 86.8095 235.043 86.2327L234.967 87.2298C242.482 87.8036 248.057 88.888 252.589 91.2656C257.106 93.6353 260.636 97.3157 264.007 103.177L264.874 102.679ZM235.043 86.2327C227.031 85.6209 221.086 84.444 215.444 81.2017C209.794 77.9545 204.401 72.6084 197.559 63.564L196.761 64.1673C203.632 73.2488 209.122 78.7216 214.946 82.0688C220.779 85.4209 226.9 86.6138 234.967 87.2298L235.043 86.2327ZM264.874 102.679C261.461 96.7432 258.005 91.882 253.478 88.3638C248.94 84.8364 243.36 82.6857 235.744 82.1042L235.668 83.1013C243.12 83.6703 248.505 85.7646 252.865 89.1533C257.237 92.5512 260.614 97.2773 264.007 103.177L264.874 102.679ZM235.744 82.1042C231.801 81.8031 228.739 80.7228 226.144 79.0065C223.543 77.2857 221.387 74.9088 219.281 71.9751C217.171 69.0359 215.135 65.5731 212.751 61.6804C210.372 57.796 207.66 53.5065 204.217 48.9554L203.419 49.5587C206.833 54.0705 209.525 58.3272 211.898 62.2026C214.266 66.0697 216.331 69.5803 218.468 72.5583C220.61 75.5417 222.85 78.0259 225.592 79.8405C228.342 81.6594 231.571 82.7885 235.668 83.1013L235.744 82.1042ZM264.874 102.679C263.184 99.74 261.686 96.5279 260.142 93.3148C258.602 90.1113 257.018 86.9112 255.169 84.0416C251.463 78.2909 246.649 73.8039 238.898 73.212L238.822 74.2091C246.139 74.7678 250.712 78.9718 254.328 84.5833C256.14 87.3948 257.7 90.5436 259.241 93.7481C260.776 96.943 262.294 100.198 264.007 103.177L264.874 102.679ZM238.898 73.212C234.952 72.9107 232.142 71.8699 229.922 70.2285C227.693 68.581 226.018 66.2996 224.39 63.4444C221.152 57.7665 218.104 49.7912 211.225 40.6983L210.428 41.3017C217.262 50.3347 220.191 58.1008 223.521 63.9398C225.177 66.8429 226.935 69.2639 229.327 71.0326C231.728 72.8073 234.728 73.8965 238.822 74.2091L238.898 73.212Z" fill="white"/>
<path d="M264.44 108.327C267.73 108.327 270.397 105.91 270.397 102.928C270.397 99.9463 267.73 97.5292 264.44 97.5292C261.15 97.5292 258.483 99.9463 258.483 102.928C258.483 105.91 261.15 108.327 264.44 108.327Z" fill="#F9D745"/>
<path d="M619 0H533V259.519H619V0Z" fill="#472D2D"/>
<path d="M712 0H619V260H712V0Z" fill="#F9D745"/>
<path d="M877.76 210.667H791.82V500H877.76V210.667Z" fill="#E86A50"/>
<path d="M952 0H878V193H952V0Z" fill="#6392EF"/>
<path d="M619 259.519H533V500H619V259.519Z" fill="#6392EF"/>
<path d="M712 260H619V500H712V260Z" fill="#472D2D"/>
<path d="M792 0H712V260H792V0Z" fill="#D5BFF7"/>
<path d="M878 0H792V227H878V0Z" fill="#FF6B3B"/>
<path d="M532 259.519H704.88L618.44 470.852L532 259.519Z" fill="#D5BFF7"/>
<path d="M532.608 265.376V166.048C539.093 167.499 545.152 169.632 550.784 172.448C556.416 175.179 561.536 178.549 566.144 182.56C570.752 186.571 574.379 191.435 577.024 197.152C579.669 202.869 580.992 209.099 580.992 215.84C580.992 229.067 576.469 239.989 567.424 248.608C558.379 257.141 546.773 262.731 532.608 265.376ZM551.04 237.984C554.624 235.509 557.44 232.395 559.488 228.64C561.536 224.8 562.56 220.704 562.56 216.352C562.56 206.709 558.72 199.157 551.04 193.696V237.984ZM632.217 245.92C628.377 251.552 623.3 255.307 616.985 257.184C610.756 259.061 603.417 260 594.969 260H590.233V172.064H599.321C606.745 172.064 613.188 173.003 618.649 174.88C624.196 176.672 628.718 180.128 632.217 185.248L617.113 195.744C615.406 193.44 612.59 191.904 608.665 191.136V205.728H620.185V224.16H608.665V240.416C612.676 239.307 615.492 237.685 617.113 235.552L632.217 245.92ZM678.987 179.488C673.099 184.096 668.406 189.557 664.907 195.872C661.494 202.101 659.787 208.757 659.787 215.84C659.787 222.923 661.494 229.579 664.907 235.808C668.32 241.952 672.971 247.328 678.859 251.936L666.571 265.632C658.72 259.317 652.576 251.893 648.139 243.36C643.702 234.741 641.483 225.568 641.483 215.84C641.483 206.112 643.702 196.981 648.139 188.448C652.576 179.829 658.72 172.32 666.571 165.92L678.987 179.488ZM759.355 182.688C768.486 191.733 773.051 202.784 773.051 215.84C773.051 228.896 768.486 239.947 759.355 248.992C750.31 257.952 739.259 262.432 726.203 262.432C713.232 262.432 702.182 257.909 693.051 248.864C684.006 239.819 679.483 228.811 679.483 215.84C679.483 202.784 684.006 191.733 693.051 182.688C702.096 173.557 713.147 168.992 726.203 168.992C739.259 168.992 750.31 173.557 759.355 182.688ZM754.619 215.84C754.619 207.904 751.846 201.205 746.299 195.744C740.838 190.197 734.139 187.424 726.203 187.424C718.352 187.424 711.654 190.197 706.107 195.744C700.56 201.291 697.787 207.989 697.787 215.84C697.787 223.605 700.56 230.304 706.107 235.936C711.739 241.483 718.438 244.256 726.203 244.256C734.054 244.256 740.752 241.483 746.299 235.936C751.846 230.389 754.619 223.691 754.619 215.84Z" fill="white"/>
<path d="M567.112 267.488C561.224 272.096 556.531 277.557 553.032 283.872C549.619 290.101 547.912 296.757 547.912 303.84C547.912 310.923 549.619 317.579 553.032 323.808C556.445 329.952 561.096 335.328 566.984 339.936L554.696 353.632C546.845 347.317 540.701 339.893 536.264 331.36C531.827 322.741 529.608 313.568 529.608 303.84C529.608 294.112 531.827 284.981 536.264 276.448C540.701 267.829 546.845 260.32 554.696 253.92L567.112 267.488ZM647.48 270.688C656.611 279.733 661.176 290.784 661.176 303.84C661.176 316.896 656.611 327.947 647.48 336.992C638.435 345.952 627.384 350.432 614.328 350.432C601.357 350.432 590.307 345.909 581.176 336.864C572.131 327.819 567.608 316.811 567.608 303.84C567.608 290.784 572.131 279.733 581.176 270.688C590.221 261.557 601.272 256.992 614.328 256.992C627.384 256.992 638.435 261.557 647.48 270.688ZM642.744 303.84C642.744 295.904 639.971 289.205 634.424 283.744C628.963 278.197 622.264 275.424 614.328 275.424C606.477 275.424 599.779 278.197 594.232 283.744C588.685 289.291 585.912 295.989 585.912 303.84C585.912 311.605 588.685 318.304 594.232 323.936C599.864 329.483 606.563 332.256 614.328 332.256C622.179 332.256 628.877 329.483 634.424 323.936C639.971 318.389 642.744 311.691 642.744 303.84ZM712.342 270.944L697.238 281.44C696.641 280.587 695.958 279.904 695.19 279.392C694.507 278.795 693.953 278.411 693.526 278.24C693.099 278.069 692.289 277.856 691.094 277.6C689.985 277.259 689.217 277.003 688.79 276.832V293.728H700.31V312.16H688.79V348H670.358V257.76H679.446C686.87 257.76 693.313 258.699 698.774 260.576C704.321 262.368 708.843 265.824 712.342 270.944ZM763.592 270.944L748.488 281.44C747.891 280.587 747.208 279.904 746.44 279.392C745.757 278.795 745.203 278.411 744.776 278.24C744.349 278.069 743.539 277.856 742.344 277.6C741.235 277.259 740.467 277.003 740.04 276.832V293.728H751.56V312.16H740.04V348H721.608V257.76H730.696C738.12 257.76 744.563 258.699 750.024 260.576C755.571 262.368 760.093 265.824 763.592 270.944ZM814.842 333.92C811.002 339.552 805.925 343.307 799.61 345.184C793.381 347.061 786.042 348 777.594 348H772.858V260.064H781.946C789.37 260.064 795.813 261.003 801.274 262.88C806.821 264.672 811.343 268.128 814.842 273.248L799.738 283.744C798.031 281.44 795.215 279.904 791.29 279.136V293.728H802.81V312.16H791.29V328.416C795.301 327.307 798.117 325.685 799.738 323.552L814.842 333.92ZM866.092 333.92C862.252 339.552 857.175 343.307 850.86 345.184C844.631 347.061 837.292 348 828.844 348H824.108V260.064H833.196C840.62 260.064 847.063 261.003 852.524 262.88C858.071 264.672 862.593 268.128 866.092 273.248L850.988 283.744C849.281 281.44 846.465 279.904 842.54 279.136V293.728H854.06V312.16H842.54V328.416C846.551 327.307 849.367 325.685 850.988 323.552L866.092 333.92Z" fill="white"/>
<path d="M1352.33 347.962C1345.26 370.701 1323.74 386.905 1293.14 393.946C1262.63 400.965 1223.89 398.61 1184.28 384.912C1144.67 371.213 1112.14 348.922 1091.49 324.211C1070.79 299.425 1062.55 272.931 1069.62 250.192C1076.69 227.453 1098.21 211.249 1128.81 204.208C1159.32 197.189 1198.06 199.544 1237.67 213.242C1277.28 226.941 1309.81 249.233 1330.45 273.943C1351.16 298.729 1359.4 325.223 1352.33 347.962Z" fill="#D5BFF7" stroke="#472D2D" stroke-width="10"/>
<path d="M1110.28 238.988C1113.58 242.465 1123.64 253.059 1131.53 242.465L1137.76 278.782C1114.07 272.659 1106.98 235.511 1110.28 238.988Z" fill="#472D2D"/>
<path d="M1184.04 409.379C1191.06 396.968 1190.66 365.234 1188.68 344.461L1177.15 347.112C1167.39 349.355 1157.44 344.019 1154.03 334.605C1132.54 275.349 1126.22 242.869 1132.26 196.49C1144.79 191.028 1153.2 189.021 1170 186.831C1226.62 185.309 1254.23 183.584 1280.27 175.627C1298.73 233.698 1307.64 241.626 1318.37 257.919C1318.6 287.896 1296.35 306.839 1293.46 287.668C1262.32 319.735 1244.15 331.266 1230.59 338.221C1232.99 363.908 1230.82 382.124 1240.04 405.244C1246.78 421.748 1271.01 438.24 1330.46 459.979L1384.76 477.047C1400.56 481.442 1407.52 486.497 1417.35 499H1010.59C1021.77 483.51 1029.36 477.587 1045.07 471.569L1106.25 454.956C1146.92 447.082 1168.9 428.089 1176.99 418.311C1179.38 415.417 1182.19 412.646 1184.04 409.379Z" fill="white"/>
<path d="M1217.26 245.17C1226.78 243.238 1257.91 254.416 1271.85 184.127C1313.22 193.604 1312.9 211.525 1309.21 245.17C1292.98 285.354 1207.73 247.102 1217.26 245.17Z" fill="#472D2D"/>
<path d="M1106.62 454.57L1046.17 471.183C1027.09 476.319 1018.75 482.86 1010 500H1418C1407.8 486.501 1400.17 481.275 1384.69 476.978L1316.96 454.57C1229.62 497.267 1183.25 499.912 1106.62 454.57Z" fill="#472D2D"/>
<path d="M1157.72 101.193C1125.56 173.876 1123 211.798 1123 211.798C1169.78 197.972 1226.79 214.958 1269.55 185.727C1296.68 196.228 1295.53 263.266 1327.29 275C1327.29 275 1337.89 238.659 1335.7 147.805C1333.51 56.9515 1189.88 28.5104 1157.72 101.193Z" fill="#472D2D"/>
<path d="M1140.32 173.309C1194.19 113.461 1229.14 93.6425 1298.22 80.199C1345.12 113.811 1339.73 151.276 1333.5 235.5C1308.52 143.352 1270.39 124.737 1170.73 162.105C1210.54 134.343 1237.43 124.311 1302.99 127.72C1232.35 112.635 1197.04 124.006 1140.32 173.309Z" fill="#B3A2CD"/>
<path d="M1189.78 281.873H1160.47V289.6H1189.78V281.873Z" fill="white"/>
<path fill-rule="evenodd" clip-rule="evenodd" d="M1172.14 278.899C1162.25 268.844 1160.09 273.936 1158.88 291.389L1159.86 290.927C1167.11 315.284 1178.94 313.025 1199.54 293.441L1211.03 297.403C1187.86 274.098 1176.72 264.766 1172.14 278.899ZM1199.54 293.441C1182.69 288.684 1173.88 287.781 1159.86 290.927L1173.47 284.45L1199.54 293.441Z" fill="#E86A50"/>
<path d="M1283.94 317.416C1296.28 317.416 1306.29 306.865 1306.29 293.849C1306.29 280.833 1296.28 270.282 1283.94 270.282C1271.6 270.282 1261.59 280.833 1261.59 293.849C1261.59 306.865 1271.6 317.416 1283.94 317.416Z" fill="#F9D745"/>
<path d="M1204.44 274.918C1205.65 274.918 1206.64 273.88 1206.64 272.6C1206.64 271.32 1205.65 270.282 1204.44 270.282C1203.23 270.282 1202.24 271.32 1202.24 272.6C1202.24 273.88 1203.23 274.918 1204.44 274.918Z" fill="#472D2D" fill-opacity="0.51"/>
<path d="M1002.89 417.18L995.862 469.347L943.923 485.254C958.704 448.96 971.98 434.486 1002.89 417.18Z" fill="white"/>
<path d="M990.145 511.805L995.927 468.868C965.284 470.575 950.769 474.744 932.844 491.785L931.217 503.87L990.145 511.805Z" fill="#472D2D"/>
<path d="M1017.04 383.958L1003.59 455.469L979.972 452.289L983.142 432.807L968.165 450.699L962.046 447.447C972.796 434.763 978.768 427.595 986.032 411.345C988.951 399.687 989.325 389.919 983.229 379.405L930.319 330.035C923.232 321.797 923.383 313.528 921.636 301.188C922.804 298.819 924.853 298.209 928.613 302.127C928.891 315.401 931.479 324.458 943.626 324.543C930.892 311.404 933.284 303.67 938.008 281.056C939.529 277.287 942.407 276.792 944.984 281.995C946.411 279.283 949.383 277.732 951.64 285.319C943.938 297.878 942.245 305.865 949.933 314.224C951.453 299.326 962.695 292.903 974.499 284.727C978.271 281.091 979.631 287.651 976.122 292.214C965.927 299.218 961.781 302.445 962.277 315.886C967.02 325.338 971.102 326.309 981.56 334.993C986.836 336.257 990.036 337.472 988.987 332.594L978.394 297.64C979.122 290.71 981.196 290.488 987.022 294.432L1005.56 335.311C1012.95 344.579 1021.1 355.769 1017.04 383.958Z" fill="#472D2D"/>
<path fill-rule="evenodd" clip-rule="evenodd" d="M987.186 271.035C986.813 269.654 987.966 268.34 989.384 268.53L1051.65 276.915C1053.01 277.098 1053.79 278.569 1053.17 279.796L1030.82 324.236C1030.44 324.998 1029.61 325.433 1028.76 325.319L1003.61 321.932C1002.87 321.832 1002.24 321.322 1001.99 320.613L995.911 303.299L981.774 297.065C980.01 296.288 978.85 294.566 978.793 292.639L978.474 281.938C978.383 278.853 981.081 276.422 984.14 276.834L988.929 277.479L987.186 271.035ZM981.814 289.654C981.969 291.314 982.94 292.787 984.405 293.583L994.814 299.241L990.058 281.656L987.184 281.269C983.998 280.839 981.24 283.486 981.538 286.687L981.814 289.654Z" fill="white"/>
<path d="M988.929 277.479L987.186 271.035C986.813 269.654 987.966 268.34 989.384 268.53L1051.65 276.915C1053.01 277.098 1053.79 278.569 1053.17 279.796L1030.82 324.236C1030.44 324.998 1029.61 325.433 1028.76 325.319L1003.61 321.932C1002.87 321.832 1002.24 321.322 1001.99 320.613L995.911 303.299M988.929 277.479L984.14 276.834C981.081 276.422 978.383 278.853 978.474 281.938L978.793 292.639C978.85 294.566 980.01 296.288 981.774 297.065L995.911 303.299M988.929 277.479L990.058 281.656M995.911 303.299L994.814 299.241M994.814 299.241L984.405 293.583C982.94 292.787 981.969 291.314 981.814 289.654L981.538 286.687C981.24 283.486 983.998 280.839 987.184 281.269L990.058 281.656M994.814 299.241L990.058 281.656M1026.62 202.508C1031.8 212.744 1032.52 220.518 1023.09 228.752C1013.66 236.987 1013.78 243.614 1018.52 262.678C1013.78 243.614 1020.48 238.557 1029.91 230.323C1039.34 222.088 1031.8 212.744 1026.62 202.508Z" stroke="white"/>
<path d="M1017.04 383.958L1003.59 455.469L979.972 452.289L983.142 432.807L968.165 450.699L962.046 447.447C972.796 434.762 978.768 427.595 986.032 411.345C988.951 399.687 989.325 389.919 983.229 379.405L930.319 330.035C923.232 321.797 923.383 313.528 921.636 301.188C922.804 298.819 924.853 298.209 928.613 302.127C928.891 315.401 931.479 324.457 943.626 324.543C930.892 311.404 933.284 303.669 938.008 281.055C939.529 277.287 942.407 276.792 944.984 281.995C946.411 279.283 949.383 277.732 951.64 285.319C943.938 297.878 942.245 305.865 949.933 314.224C951.453 299.326 964.531 291.478 976.336 283.302C980.107 279.666 981.468 286.226 977.958 290.789C967.764 297.793 961.781 302.445 962.277 315.886C967.02 325.338 971.102 326.309 981.56 334.993C986.836 336.256 990.037 337.472 988.987 332.594L981.99 307.253C982.718 300.323 984.649 298.914 990.475 302.857L1005.56 335.311C1012.95 344.579 1021.1 355.769 1017.04 383.958Z" fill="#472D2D"/>
<path fill-rule="evenodd" clip-rule="evenodd" d="M1022.07 177.71C1022.29 177.543 1022.33 177.23 1022.16 177.009C1022.01 176.805 1021.73 176.753 1021.51 176.878C1021.5 176.889 1021.48 176.9 1021.46 176.912C1015.13 181.719 1010.4 185.558 1008.03 189.143C1006.84 190.952 1006.22 192.735 1006.32 194.575C1006.43 196.414 1007.25 198.234 1008.81 200.125C1011.82 203.801 1014.89 207.99 1016.1 212.305C1016.7 214.452 1016.83 216.615 1016.27 218.756C1015.71 220.896 1014.46 223.05 1012.22 225.166C1012.02 225.356 1012.01 225.672 1012.2 225.873C1012.29 225.967 1012.41 226.019 1012.53 226.028C1012.66 226.04 1012.8 225.995 1012.91 225.894C1017.53 221.52 1020.2 217.352 1020.91 213.29C1021.63 209.202 1020.34 205.314 1017.25 201.554C1014.26 197.91 1012.41 194.314 1012.78 190.5C1013.15 186.688 1015.76 182.498 1022.07 177.71ZM1017.05 219.671C1018.61 217.404 1019.56 215.224 1019.93 213.116C1020.58 209.382 1019.43 205.78 1016.48 202.188C1013.44 198.48 1011.38 194.618 1011.79 190.401C1012 188.242 1012.85 186.032 1014.49 183.738C1011.99 185.901 1010.09 187.845 1008.87 189.696C1007.75 191.387 1007.23 192.959 1007.32 194.52C1007.41 196.083 1008.11 197.707 1009.58 199.491C1012.59 203.168 1015.79 207.5 1017.06 212.038C1017.7 214.318 1017.85 216.665 1017.24 219.011C1017.18 219.231 1017.12 219.451 1017.05 219.671Z" fill="white"/>
<path d="M1 353H879.009" stroke="white" stroke-width="10"/>
</g>
<defs>
<clipPath id="clip0_234_1315">
<rect width="1440" height="500" fill="white"/>
</clipPath>
</defs>
</svg>
