<svg width="1440" height="500" viewBox="0 0 1440 500" fill="none" xmlns="http://www.w3.org/2000/svg">
<g clip-path="url(#clip0_234_1315)">
<path d="M1440 0H0V500H1440V0Z" fill="#E86A50"/>
<path d="M619 0H533V259.519H619V0Z" fill="#472D2D"/>
<path d="M712 0H619V260H712V0Z" fill="#F9D745"/>
<path d="M877.76 210.667H791.82V500H877.76V210.667Z" fill="#E86A50"/>
<path d="M952 0H878V193H952V0Z" fill="#6392EF"/>
<path d="M619 259.519H533V500H619V259.519Z" fill="#6392EF"/>
<path d="M712 260H619V500H712V260Z" fill="#472D2D"/>
<path d="M792 0H712V260H792V0Z" fill="#D5BFF7"/>
<path d="M878 0H792V227H878V0Z" fill="#FF6B3B"/>
<path d="M532 259.519H704.88L618.44 470.852L532 259.519Z" fill="#D5BFF7"/>
<path d="M532.608 265.376V166.048C539.093 167.499 545.152 169.632 550.784 172.448C556.416 175.179 561.536 178.549 566.144 182.56C570.752 186.571 574.379 191.435 577.024 197.152C579.669 202.869 580.992 209.099 580.992 215.84C580.992 229.067 576.469 239.989 567.424 248.608C558.379 257.141 546.773 262.731 532.608 265.376ZM551.04 237.984C554.624 235.509 557.44 232.395 559.488 228.64C561.536 224.8 562.56 220.704 562.56 216.352C562.56 206.709 558.72 199.157 551.04 193.696V237.984ZM632.217 245.92C628.377 251.552 623.3 255.307 616.985 257.184C610.756 259.061 603.417 260 594.969 260H590.233V172.064H599.321C606.745 172.064 613.188 173.003 618.649 174.88C624.196 176.672 628.718 180.128 632.217 185.248L617.113 195.744C615.406 193.44 612.59 191.904 608.665 191.136V205.728H620.185V224.16H608.665V240.416C612.676 239.307 615.492 237.685 617.113 235.552L632.217 245.92ZM678.987 179.488C673.099 184.096 668.406 189.557 664.907 195.872C661.494 202.101 659.787 208.757 659.787 215.84C659.787 222.923 661.494 229.579 664.907 235.808C668.32 241.952 672.971 247.328 678.859 251.936L666.571 265.632C658.72 259.317 652.576 251.893 648.139 243.36C643.702 234.741 641.483 225.568 641.483 215.84C641.483 206.112 643.702 196.981 648.139 188.448C652.576 179.829 658.72 172.32 666.571 165.92L678.987 179.488ZM759.355 182.688C768.486 191.733 773.051 202.784 773.051 215.84C773.051 228.896 768.486 239.947 759.355 248.992C750.31 257.952 739.259 262.432 726.203 262.432C713.232 262.432 702.182 257.909 693.051 248.864C684.006 239.819 679.483 228.811 679.483 215.84C679.483 202.784 684.006 191.733 693.051 182.688C702.096 173.557 713.147 168.992 726.203 168.992C739.259 168.992 750.31 173.557 759.355 182.688ZM754.619 215.84C754.619 207.904 751.846 201.205 746.299 195.744C740.838 190.197 734.139 187.424 726.203 187.424C718.352 187.424 711.654 190.197 706.107 195.744C700.56 201.291 697.787 207.989 697.787 215.84C697.787 223.605 700.56 230.304 706.107 235.936C711.739 241.483 718.438 244.256 726.203 244.256C734.054 244.256 740.752 241.483 746.299 235.936C751.846 230.389 754.619 223.691 754.619 215.84Z" fill="white"/>
<path d="M567.112 267.488C561.224 272.096 556.531 277.557 553.032 283.872C549.619 290.101 547.912 296.757 547.912 303.84C547.912 310.923 549.619 317.579 553.032 323.808C556.445 329.952 561.096 335.328 566.984 339.936L554.696 353.632C546.845 347.317 540.701 339.893 536.264 331.36C531.827 322.741 529.608 313.568 529.608 303.84C529.608 294.112 531.827 284.981 536.264 276.448C540.701 267.829 546.845 260.32 554.696 253.92L567.112 267.488ZM647.48 270.688C656.611 279.733 661.176 290.784 661.176 303.84C661.176 316.896 656.611 327.947 647.48 336.992C638.435 345.952 627.384 350.432 614.328 350.432C601.357 350.432 590.307 345.909 581.176 336.864C572.131 327.819 567.608 316.811 567.608 303.84C567.608 290.784 572.131 279.733 581.176 270.688C590.221 261.557 601.272 256.992 614.328 256.992C627.384 256.992 638.435 261.557 647.48 270.688ZM642.744 303.84C642.744 295.904 639.971 289.205 634.424 283.744C628.963 278.197 622.264 275.424 614.328 275.424C606.477 275.424 599.779 278.197 594.232 283.744C588.685 289.291 585.912 295.989 585.912 303.84C585.912 311.605 588.685 318.304 594.232 323.936C599.864 329.483 606.563 332.256 614.328 332.256C622.179 332.256 628.877 329.483 634.424 323.936C639.971 318.389 642.744 311.691 642.744 303.84ZM712.342 270.944L697.238 281.44C696.641 280.587 695.958 279.904 695.19 279.392C694.507 278.795 693.953 278.411 693.526 278.24C693.099 278.069 692.289 277.856 691.094 277.6C689.985 277.259 689.217 277.003 688.79 276.832V293.728H700.31V312.16H688.79V348H670.358V257.76H679.446C686.87 257.76 693.313 258.699 698.774 260.576C704.321 262.368 708.843 265.824 712.342 270.944ZM763.592 270.944L748.488 281.44C747.891 280.587 747.208 279.904 746.44 279.392C745.757 278.795 745.203 278.411 744.776 278.24C744.349 278.069 743.539 277.856 742.344 277.6C741.235 277.259 740.467 277.003 740.04 276.832V293.728H751.56V312.16H740.04V348H721.608V257.76H730.696C738.12 257.76 744.563 258.699 750.024 260.576C755.571 262.368 760.093 265.824 763.592 270.944ZM814.842 333.92C811.002 339.552 805.925 343.307 799.61 345.184C793.381 347.061 786.042 348 777.594 348H772.858V260.064H781.946C789.37 260.064 795.813 261.003 801.274 262.88C806.821 264.672 811.343 268.128 814.842 273.248L799.738 283.744C798.031 281.44 795.215 279.904 791.29 279.136V293.728H802.81V312.16H791.29V328.416C795.301 327.307 798.117 325.685 799.738 323.552L814.842 333.92ZM866.092 333.92C862.252 339.552 857.175 343.307 850.86 345.184C844.631 347.061 837.292 348 828.844 348H824.108V260.064H833.196C840.62 260.064 847.063 261.003 852.524 262.88C858.071 264.672 862.593 268.128 866.092 273.248L850.988 283.744C849.281 281.44 846.465 279.904 842.54 279.136V293.728H854.06V312.16H842.54V328.416C846.551 327.307 849.367 325.685 850.988 323.552L866.092 333.92Z" fill="white"/>
<path d="M-0.00830078 350.992H878.001" stroke="white" stroke-width="10"/>
</g>
<defs>
<clipPath id="clip0_234_1315">
<rect width="1440" height="500" fill="white"/>
</clipPath>
</defs>
</svg>
