<svg width="117" height="22" viewBox="0 0 117 22" fill="none" xmlns="http://www.w3.org/2000/svg">
<path d="M17.7929 18.84V3.32C18.8063 3.54667 19.7529 3.88 20.6329 4.32C21.5129 4.74667 22.3129 5.27333 23.0329 5.9C23.7529 6.52667 24.3196 7.28667 24.7329 8.18C25.1463 9.07333 25.3529 10.0467 25.3529 11.1C25.3529 13.1667 24.6463 14.8733 23.2329 16.22C21.8196 17.5533 20.0063 18.4267 17.7929 18.84ZM20.6729 14.56C21.2329 14.1733 21.6729 13.6867 21.9929 13.1C22.3129 12.5 22.4729 11.86 22.4729 11.18C22.4729 9.67333 21.8729 8.49333 20.6729 7.64V14.56ZM33.3568 15.8C32.7568 16.68 31.9635 17.2667 30.9768 17.56C30.0035 17.8533 28.8568 18 27.5368 18H26.7968V4.26H28.2168C29.3768 4.26 30.3835 4.40667 31.2368 4.7C32.1035 4.98 32.8102 5.52 33.3568 6.32L30.9968 7.96C30.7302 7.6 30.2902 7.36 29.6768 7.24V9.52H31.4768V12.4H29.6768V14.94C30.3035 14.7667 30.7435 14.5133 30.9968 14.18L33.3568 15.8ZM40.6647 5.42C39.7447 6.14 39.0113 6.99333 38.4647 7.98C37.9313 8.95333 37.6647 9.99333 37.6647 11.1C37.6647 12.2067 37.9313 13.2467 38.4647 14.22C38.998 15.18 39.7247 16.02 40.6447 16.74L38.7247 18.88C37.498 17.8933 36.538 16.7333 35.8447 15.4C35.1513 14.0533 34.8047 12.62 34.8047 11.1C34.8047 9.58 35.1513 8.15333 35.8447 6.82C36.538 5.47333 37.498 4.3 38.7247 3.3L40.6647 5.42ZM53.2222 5.92C54.6488 7.33333 55.3622 9.06 55.3622 11.1C55.3622 13.14 54.6488 14.8667 53.2222 16.28C51.8088 17.68 50.0822 18.38 48.0422 18.38C46.0155 18.38 44.2888 17.6733 42.8622 16.26C41.4488 14.8467 40.7422 13.1267 40.7422 11.1C40.7422 9.06 41.4488 7.33333 42.8622 5.92C44.2755 4.49333 46.0022 3.78 48.0422 3.78C50.0822 3.78 51.8088 4.49333 53.2222 5.92ZM52.4822 11.1C52.4822 9.86 52.0488 8.81333 51.1822 7.96C50.3288 7.09333 49.2822 6.66 48.0422 6.66C46.8155 6.66 45.7688 7.09333 44.9022 7.96C44.0355 8.82667 43.6022 9.87333 43.6022 11.1C43.6022 12.3133 44.0355 13.36 44.9022 14.24C45.7822 15.1067 46.8288 15.54 48.0422 15.54C49.2688 15.54 50.3155 15.1067 51.1822 14.24C52.0488 13.3733 52.4822 12.3267 52.4822 11.1ZM68.8678 5.42C67.9478 6.14 67.2144 6.99333 66.6678 7.98C66.1344 8.95333 65.8678 9.99333 65.8678 11.1C65.8678 12.2067 66.1344 13.2467 66.6678 14.22C67.2011 15.18 67.9278 16.02 68.8478 16.74L66.9278 18.88C65.7011 17.8933 64.7411 16.7333 64.0478 15.4C63.3544 14.0533 63.0078 12.62 63.0078 11.1C63.0078 9.58 63.3544 8.15333 64.0478 6.82C64.7411 5.47333 65.7011 4.3 66.9278 3.3L68.8678 5.42ZM81.4253 5.92C82.8519 7.33333 83.5653 9.06 83.5653 11.1C83.5653 13.14 82.8519 14.8667 81.4253 16.28C80.0119 17.68 78.2853 18.38 76.2453 18.38C74.2186 18.38 72.4919 17.6733 71.0653 16.26C69.6519 14.8467 68.9453 13.1267 68.9453 11.1C68.9453 9.06 69.6519 7.33333 71.0653 5.92C72.4786 4.49333 74.2053 3.78 76.2453 3.78C78.2853 3.78 80.0119 4.49333 81.4253 5.92ZM80.6853 11.1C80.6853 9.86 80.2519 8.81333 79.3853 7.96C78.5319 7.09333 77.4853 6.66 76.2453 6.66C75.0186 6.66 73.9719 7.09333 73.1053 7.96C72.2386 8.82667 71.8053 9.87333 71.8053 11.1C71.8053 12.3133 72.2386 13.36 73.1053 14.24C73.9853 15.1067 75.0319 15.54 76.2453 15.54C77.4719 15.54 78.5186 15.1067 79.3853 14.24C80.2519 13.3733 80.6853 12.3267 80.6853 11.1ZM91.56 5.96L89.2 7.6C89.1066 7.46667 89 7.36 88.88 7.28C88.7733 7.18667 88.6866 7.12667 88.62 7.1C88.5533 7.07333 88.4266 7.04 88.24 7C88.0666 6.94667 87.9466 6.90667 87.88 6.88V9.52H89.68V12.4H87.88V18H85V3.9H86.42C87.58 3.9 88.5866 4.04667 89.44 4.34C90.3066 4.62 91.0133 5.16 91.56 5.96ZM99.5678 5.96L97.2078 7.6C97.1144 7.46667 97.0078 7.36 96.8878 7.28C96.7811 7.18667 96.6944 7.12667 96.6278 7.1C96.5611 7.07333 96.4344 7.04 96.2478 7C96.0744 6.94667 95.9544 6.90667 95.8878 6.88V9.52H97.6878V12.4H95.8878V18H93.0078V3.9H94.4278C95.5878 3.9 96.5944 4.04667 97.4478 4.34C98.3144 4.62 99.0211 5.16 99.5678 5.96ZM107.576 15.8C106.976 16.68 106.182 17.2667 105.196 17.56C104.222 17.8533 103.076 18 101.756 18H101.016V4.26H102.436C103.596 4.26 104.602 4.40667 105.456 4.7C106.322 4.98 107.029 5.52 107.576 6.32L105.216 7.96C104.949 7.6 104.509 7.36 103.896 7.24V9.52H105.696V12.4H103.896V14.94C104.522 14.7667 104.962 14.5133 105.216 14.18L107.576 15.8ZM115.583 15.8C114.983 16.68 114.19 17.2667 113.203 17.56C112.23 17.8533 111.083 18 109.763 18H109.023V4.26H110.443C111.603 4.26 112.61 4.40667 113.463 4.7C114.33 4.98 115.037 5.52 115.583 6.32L113.223 7.96C112.957 7.6 112.517 7.36 111.903 7.24V9.52H113.703V12.4H111.903V14.94C112.53 14.7667 112.97 14.5133 113.223 14.18L115.583 15.8Z" fill="white"/>
<path d="M11.5515 11.453C11.5515 14.3239 9.10078 16.6922 6.02575 16.6922C2.95072 16.6922 0.5 14.3239 0.5 11.453C0.5 8.58224 2.95072 6.21392 6.02575 6.21392C9.10078 6.21392 11.5515 8.58224 11.5515 11.453Z" fill="white" stroke="#E86A50"/>
<path d="M8.3868 10.7699L8.38578 10.7858V10.8018C8.38578 11.4491 8.15561 12.0139 7.75616 12.4156C7.35886 12.8151 6.7648 13.0826 5.98128 13.0826C4.40562 13.0826 3.42393 12.0723 3.42393 10.8565V10.8348L3.42204 10.8132L3.25702 8.9174H5.87513H8.50556L8.3868 10.7699Z" fill="white" stroke="#E86A50"/>
<path d="M8.53865 8.27391C8.53865 9.63915 7.36939 10.787 5.87513 10.787C4.38087 10.787 3.21161 9.63915 3.21161 8.27391C3.21161 6.90868 4.38087 5.76087 5.87513 5.76087C7.36939 5.76087 8.53865 6.90868 8.53865 8.27391Z" fill="#472D2D" stroke="#E86A50"/>
<path d="M5.87511 6.30326C5.32685 6.30326 4.75731 6.40507 4.23869 6.61931C4.62805 6.26802 5.17762 6.04783 5.87511 6.04783C6.5726 6.04783 7.12217 6.26802 7.51154 6.61931C6.99291 6.40507 6.42337 6.30326 5.87511 6.30326Z" fill="#E86A50" stroke="#E86A50"/>
<path d="M5.02148 0V8.6087M6.52792 0V7.85047" stroke="#E86A50"/>
</svg>
