<svg width="74" height="11" viewBox="0 0 74 11" fill="none" xmlns="http://www.w3.org/2000/svg">
<path d="M9.5 5.5C9.5 7.98528 7.48528 10 5 10C2.51472 10 0.5 7.98528 0.5 5.5C0.5 3.01472 2.51472 1 5 1C7.48528 1 9.5 3.01472 9.5 5.5Z" fill="#472D2D" stroke="#472D2D"/>
<path d="M25.5 5.5C25.5 7.98528 23.4853 10 21 10C18.5147 10 16.5 7.98528 16.5 5.5C16.5 3.01472 18.5147 1 21 1C23.4853 1 25.5 3.01472 25.5 5.5Z" fill="#472D2D" stroke="#472D2D"/>
<path d="M41.5 5.5C41.5 7.98528 39.4853 10 37 10C34.5147 10 32.5 7.98528 32.5 5.5C32.5 3.01472 34.5147 1 37 1C39.4853 1 41.5 3.01472 41.5 5.5Z" fill="#472D2D" stroke="#472D2D"/>
<path d="M57.5 5.5C57.5 7.98528 55.4853 10 53 10C50.5147 10 48.5 7.98528 48.5 5.5C48.5 3.01472 50.5147 1 53 1C55.4853 1 57.5 3.01472 57.5 5.5Z" stroke="#472D2D"/>
<path d="M73.5 5.5C73.5 7.98528 71.4853 10 69 10C66.5147 10 64.5 7.98528 64.5 5.5C64.5 3.01472 66.5147 1 69 1C71.4853 1 73.5 3.01472 73.5 5.5Z" stroke="#472D2D"/>
</svg>