<svg width="142" height="26" viewBox="0 0 142 26" fill="none" xmlns="http://www.w3.org/2000/svg">
<g clip-path="url(#clip0_351_838)">
<path d="M22.7524 22.008V3.384C23.9684 3.656 25.1044 4.056 26.1604 4.584C27.2164 5.096 28.1764 5.728 29.0404 6.48C29.9044 7.232 30.5844 8.144 31.0804 9.216C31.5764 10.288 31.8244 11.456 31.8244 12.72C31.8244 15.2 30.9764 17.248 29.2804 18.864C27.5844 20.464 25.4084 21.512 22.7524 22.008ZM26.2084 16.872C26.8804 16.408 27.4084 15.824 27.7924 15.12C28.1764 14.4 28.3684 13.632 28.3684 12.816C28.3684 11.008 27.6484 9.592 26.2084 8.568V16.872ZM41.4291 18.36C40.7091 19.416 39.7571 20.12 38.5731 20.472C37.4051 20.824 36.0291 21 34.4451 21H33.5571V4.512H35.2611C36.6531 4.512 37.8611 4.688 38.8851 5.04C39.9251 5.376 40.7731 6.024 41.4291 6.984L38.5971 8.952C38.2771 8.52 37.7491 8.232 37.0131 8.088V10.824H39.1731V14.28H37.0131V17.328C37.7651 17.12 38.2931 16.816 38.5971 16.416L41.4291 18.36ZM50.1985 5.904C49.0945 6.768 48.2145 7.792 47.5585 8.976C46.9185 10.144 46.5985 11.392 46.5985 12.72C46.5985 14.048 46.9185 15.296 47.5585 16.464C48.1985 17.616 49.0705 18.624 50.1745 19.488L47.8705 22.056C46.3985 20.872 45.2465 19.48 44.4145 17.88C43.5825 16.264 43.1665 14.544 43.1665 12.72C43.1665 10.896 43.5825 9.184 44.4145 7.584C45.2465 5.968 46.3985 4.56 47.8705 3.36L50.1985 5.904ZM65.2675 6.504C66.9795 8.2 67.8355 10.272 67.8355 12.72C67.8355 15.168 66.9795 17.24 65.2675 18.936C63.5715 20.616 61.4995 21.456 59.0515 21.456C56.6195 21.456 54.5475 20.608 52.8355 18.912C51.1395 17.216 50.2915 15.152 50.2915 12.72C50.2915 10.272 51.1395 8.2 52.8355 6.504C54.5315 4.792 56.6035 3.936 59.0515 3.936C61.4995 3.936 63.5715 4.792 65.2675 6.504ZM64.3795 12.72C64.3795 11.232 63.8595 9.976 62.8195 8.952C61.7955 7.912 60.5395 7.392 59.0515 7.392C57.5795 7.392 56.3235 7.912 55.2835 8.952C54.2435 9.992 53.7235 11.248 53.7235 12.72C53.7235 14.176 54.2435 15.432 55.2835 16.488C56.3395 17.528 57.5955 18.048 59.0515 18.048C60.5235 18.048 61.7795 17.528 62.8195 16.488C63.8595 15.448 64.3795 14.192 64.3795 12.72ZM84.0422 5.904C82.9382 6.768 82.0582 7.792 81.4022 8.976C80.7622 10.144 80.4422 11.392 80.4422 12.72C80.4422 14.048 80.7622 15.296 81.4022 16.464C82.0422 17.616 82.9142 18.624 84.0182 19.488L81.7142 22.056C80.2422 20.872 79.0902 19.48 78.2582 17.88C77.4262 16.264 77.0102 14.544 77.0102 12.72C77.0102 10.896 77.4262 9.184 78.2582 7.584C79.0902 5.968 80.2422 4.56 81.7142 3.36L84.0422 5.904ZM99.1112 6.504C100.823 8.2 101.679 10.272 101.679 12.72C101.679 15.168 100.823 17.24 99.1112 18.936C97.4152 20.616 95.3432 21.456 92.8952 21.456C90.4632 21.456 88.3912 20.608 86.6792 18.912C84.9832 17.216 84.1352 15.152 84.1352 12.72C84.1352 10.272 84.9832 8.2 86.6792 6.504C88.3752 4.792 90.4472 3.936 92.8952 3.936C95.3432 3.936 97.4152 4.792 99.1112 6.504ZM98.2232 12.72C98.2232 11.232 97.7032 9.976 96.6632 8.952C95.6392 7.912 94.3832 7.392 92.8952 7.392C91.4232 7.392 90.1672 7.912 89.1272 8.952C88.0872 9.992 87.5672 11.248 87.5672 12.72C87.5672 14.176 88.0872 15.432 89.1272 16.488C90.1832 17.528 91.4392 18.048 92.8952 18.048C94.3672 18.048 95.6232 17.528 96.6632 16.488C97.7032 15.448 98.2232 14.192 98.2232 12.72ZM111.273 6.552L108.441 8.52C108.329 8.36 108.201 8.232 108.057 8.136C107.929 8.024 107.825 7.952 107.745 7.92C107.665 7.888 107.513 7.848 107.289 7.8C107.081 7.736 106.937 7.688 106.857 7.656V10.824H109.017V14.28H106.857V21H103.401V4.08H105.105C106.497 4.08 107.705 4.256 108.729 4.608C109.769 4.944 110.617 5.592 111.273 6.552ZM120.882 6.552L118.05 8.52C117.938 8.36 117.81 8.232 117.666 8.136C117.538 8.024 117.434 7.952 117.354 7.92C117.274 7.888 117.122 7.848 116.898 7.8C116.69 7.736 116.546 7.688 116.466 7.656V10.824H118.626V14.28H116.466V21H113.01V4.08H114.714C116.106 4.08 117.314 4.256 118.338 4.608C119.378 4.944 120.226 5.592 120.882 6.552ZM130.492 18.36C129.772 19.416 128.82 20.12 127.636 20.472C126.468 20.824 125.092 21 123.508 21H122.62V4.512H124.324C125.716 4.512 126.924 4.688 127.948 5.04C128.988 5.376 129.836 6.024 130.492 6.984L127.66 8.952C127.34 8.52 126.812 8.232 126.076 8.088V10.824H128.236V14.28H126.076V17.328C126.828 17.12 127.356 16.816 127.66 16.416L130.492 18.36ZM140.101 18.36C139.381 19.416 138.429 20.12 137.245 20.472C136.077 20.824 134.701 21 133.117 21H132.229V4.512H133.933C135.325 4.512 136.533 4.688 137.557 5.04C138.597 5.376 139.445 6.024 140.101 6.984L137.269 8.952C136.949 8.52 136.421 8.232 135.685 8.088V10.824H137.845V14.28H135.685V17.328C136.437 17.12 136.965 16.816 137.269 16.416L140.101 18.36Z" fill="white"/>
<path d="M14.9506 15.6178C14.9506 19.67 11.7097 22.9439 7.72532 22.9439C3.74098 22.9439 0.5 19.67 0.5 15.6178C0.5 11.5656 3.74098 8.2917 7.72532 8.2917C11.7097 8.2917 14.9506 11.5656 14.9506 15.6178Z" fill="white" stroke="#E86A50"/>
<path d="M10.8929 14.6997L10.892 14.7147V14.7298C10.892 15.6654 10.5781 16.4866 10.0331 17.0696C9.49217 17.6482 8.69658 18.0217 7.66827 18.0217C5.61322 18.0217 4.24858 16.6066 4.24858 14.8044V14.7839L4.24691 14.7636L4.01897 11.9783H7.53217H11.0569L10.8929 14.6997Z" fill="white" stroke="#E86A50"/>
<path d="M11.088 11.2826C11.088 13.2818 9.4899 14.8913 7.53217 14.8913C5.57445 14.8913 3.97638 13.2818 3.97638 11.2826C3.97638 9.28345 5.57445 7.67391 7.53217 7.67391C9.4899 7.67391 11.088 9.28345 11.088 11.2826Z" fill="#472D2D" stroke="#E86A50"/>
<path d="M7.5322 8.77718C6.59465 8.77718 5.62567 9.02686 4.83479 9.54691C4.94763 9.34913 5.07871 9.16922 5.22586 9.00886C5.76144 8.42519 6.54142 8.06522 7.5322 8.06522C8.52298 8.06522 9.30296 8.42519 9.83854 9.00886C9.98569 9.16922 10.1168 9.34913 10.2296 9.54691C9.43872 9.02686 8.46975 8.77718 7.5322 8.77718Z" fill="#E86A50" stroke="#E86A50"/>
<path d="M6.43774 0V11.7391M8.36907 0V10.7052" stroke="#E86A50"/>
</g>
<defs>
<clipPath id="clip0_351_838">
<rect width="142" height="26" fill="white"/>
</clipPath>
</defs>
</svg>
