<svg width="233" height="46" viewBox="0 0 233 46" fill="none" xmlns="http://www.w3.org/2000/svg">
<path d="M35.44 37.68V6.64C37.4667 7.09333 39.36 7.76 41.12 8.64C42.88 9.49333 44.48 10.5467 45.92 11.8C47.36 13.0533 48.4933 14.5733 49.32 16.36C50.1467 18.1467 50.56 20.0933 50.56 22.2C50.56 26.3333 49.1467 29.7467 46.32 32.44C43.4933 35.1067 39.8667 36.8533 35.44 37.68ZM41.2 29.12C42.32 28.3467 43.2 27.3733 43.84 26.2C44.48 25 44.8 23.72 44.8 22.36C44.8 19.3467 43.6 16.9867 41.2 15.28V29.12ZM66.5678 31.6C65.3678 33.36 63.7811 34.5333 61.8078 35.12C59.8611 35.7067 57.5678 36 54.9278 36H53.4478V8.52H56.2878C58.6078 8.52 60.6211 8.81333 62.3278 9.4C64.0611 9.96 65.4745 11.04 66.5678 12.64L61.8478 15.92C61.3145 15.2 60.4345 14.72 59.2078 14.48V19.04H62.8078V24.8H59.2078V29.88C60.4611 29.5333 61.3411 29.0267 61.8478 28.36L66.5678 31.6ZM81.1834 10.84C79.3434 12.28 77.8768 13.9867 76.7834 15.96C75.7168 17.9067 75.1834 19.9867 75.1834 22.2C75.1834 24.4133 75.7168 26.4933 76.7834 28.44C77.8501 30.36 79.3034 32.04 81.1434 33.48L77.3034 37.76C74.8501 35.7867 72.9301 33.4667 71.5434 30.8C70.1568 28.1067 69.4634 25.24 69.4634 22.2C69.4634 19.16 70.1568 16.3067 71.5434 13.64C72.9301 10.9467 74.8501 8.6 77.3034 6.6L81.1834 10.84ZM106.298 11.84C109.152 14.6667 110.578 18.12 110.578 22.2C110.578 26.28 109.152 29.7333 106.298 32.56C103.472 35.36 100.018 36.76 95.9384 36.76C91.8851 36.76 88.4318 35.3467 85.5784 32.52C82.7518 29.6933 81.3384 26.2533 81.3384 22.2C81.3384 18.12 82.7518 14.6667 85.5784 11.84C88.4051 8.98667 91.8584 7.56 95.9384 7.56C100.018 7.56 103.472 8.98667 106.298 11.84ZM104.818 22.2C104.818 19.72 103.952 17.6267 102.218 15.92C100.512 14.1867 98.4184 13.32 95.9384 13.32C93.4851 13.32 91.3918 14.1867 89.6584 15.92C87.9251 17.6533 87.0584 19.7467 87.0584 22.2C87.0584 24.6267 87.9251 26.72 89.6584 28.48C91.4184 30.2133 93.5118 31.08 95.9384 31.08C98.3918 31.08 100.485 30.2133 102.218 28.48C103.952 26.7467 104.818 24.6533 104.818 22.2ZM137.59 10.84C135.75 12.28 134.283 13.9867 133.19 15.96C132.123 17.9067 131.59 19.9867 131.59 22.2C131.59 24.4133 132.123 26.4933 133.19 28.44C134.256 30.36 135.71 32.04 137.55 33.48L133.71 37.76C131.256 35.7867 129.336 33.4667 127.95 30.8C126.563 28.1067 125.87 25.24 125.87 22.2C125.87 19.16 126.563 16.3067 127.95 13.64C129.336 10.9467 131.256 8.6 133.71 6.6L137.59 10.84ZM162.705 11.84C165.558 14.6667 166.985 18.12 166.985 22.2C166.985 26.28 165.558 29.7333 162.705 32.56C159.878 35.36 156.425 36.76 152.345 36.76C148.291 36.76 144.838 35.3467 141.985 32.52C139.158 29.6933 137.745 26.2533 137.745 22.2C137.745 18.12 139.158 14.6667 141.985 11.84C144.811 8.98667 148.265 7.56 152.345 7.56C156.425 7.56 159.878 8.98667 162.705 11.84ZM161.225 22.2C161.225 19.72 160.358 17.6267 158.625 15.92C156.918 14.1867 154.825 13.32 152.345 13.32C149.891 13.32 147.798 14.1867 146.065 15.92C144.331 17.6533 143.465 19.7467 143.465 22.2C143.465 24.6267 144.331 26.72 146.065 28.48C147.825 30.2133 149.918 31.08 152.345 31.08C154.798 31.08 156.891 30.2133 158.625 28.48C160.358 26.7467 161.225 24.6533 161.225 22.2ZM182.974 11.92L178.254 15.2C178.067 14.9333 177.854 14.72 177.614 14.56C177.401 14.3733 177.227 14.2533 177.094 14.2C176.961 14.1467 176.707 14.08 176.334 14C175.987 13.8933 175.747 13.8133 175.614 13.76V19.04H179.214V24.8H175.614V36H169.854V7.8H172.694C175.014 7.8 177.027 8.09333 178.734 8.68C180.467 9.24 181.881 10.32 182.974 11.92ZM198.99 11.92L194.27 15.2C194.083 14.9333 193.87 14.72 193.63 14.56C193.416 14.3733 193.243 14.2533 193.11 14.2C192.976 14.1467 192.723 14.08 192.35 14C192.003 13.8933 191.763 13.8133 191.63 13.76V19.04H195.23V24.8H191.63V36H185.87V7.8H188.71C191.03 7.8 193.043 8.09333 194.75 8.68C196.483 9.24 197.896 10.32 198.99 11.92ZM215.005 31.6C213.805 33.36 212.219 34.5333 210.245 35.12C208.299 35.7067 206.005 36 203.365 36H201.885V8.52H204.725C207.045 8.52 209.059 8.81333 210.765 9.4C212.499 9.96 213.912 11.04 215.005 12.64L210.285 15.92C209.752 15.2 208.872 14.72 207.645 14.48V19.04H211.245V24.8H207.645V29.88C208.899 29.5333 209.779 29.0267 210.285 28.36L215.005 31.6ZM231.021 31.6C229.821 33.36 228.234 34.5333 226.261 35.12C224.314 35.7067 222.021 36 219.381 36H217.901V8.52H220.741C223.061 8.52 225.074 8.81333 226.781 9.4C228.514 9.96 229.928 11.04 231.021 12.64L226.301 15.92C225.768 15.2 224.888 14.72 223.661 14.48V19.04H227.261V24.8H223.661V29.88C224.914 29.5333 225.794 29.0267 226.301 28.36L231.021 31.6Z" fill="white"/>
<circle cx="12" cy="23.9473" r="11.5" fill="white" stroke="#E86A50"/>
<path d="M17.1965 22.5552L17.1956 22.5704V22.5857C17.1956 24.0779 16.6881 25.4039 15.789 26.3532C14.8937 27.2985 13.5824 27.9 11.9114 27.9C8.56911 27.9 6.32284 25.6132 6.32284 22.7V22.6793L6.32113 22.6587L5.94319 18.1H11.7H17.4686L17.1965 22.5552Z" fill="white" stroke="#E86A50"/>
<circle cx="11.7" cy="17.3" r="5.8" fill="#472D2D" stroke="#E86A50"/>
<path d="M15.4886 13.6357C15.9704 14.154 16.3438 14.7932 16.5852 15.5292C15.3074 14.3119 13.4776 13.725 11.7 13.725C9.9224 13.725 8.09263 14.3119 6.81479 15.5292C7.05615 14.7932 7.42956 14.154 7.91144 13.6357C8.79911 12.6807 10.0873 12.1 11.7 12.1C13.3127 12.1 14.6009 12.6807 15.4886 13.6357Z" fill="#E86A50" stroke="#E86A50"/>
<path d="M10 0V18M13 0V16.4146" stroke="#E86A50"/>
</svg>
